<?xml version="1.0" encoding="UTF-8" standalone="no"?><svg xmlns="http://www.w3.org/2000/svg" xmlns:xlink="http://www.w3.org/1999/xlink" contentStyleType="text/css" height="414px" preserveAspectRatio="none" style="width:557px;height:414px;background:#FFFFFF;" version="1.1" viewBox="0 0 557 414" width="557px" zoomAndPan="magnify"><defs/><g><ellipse cx="16" cy="32" fill="#222222" rx="10" ry="10" style="stroke:none;stroke-width:1.0;"/><g id="creating"><rect fill="#F1F1F1" height="50" rx="12.5" ry="12.5" style="stroke:#181818;stroke-width:0.5;" width="76" x="61" y="7"/><line style="stroke:#181818;stroke-width:0.5;" x1="61" x2="137" y1="33.4883" y2="33.4883"/><text fill="#000000" font-family="sans-serif" font-size="14" lengthAdjust="spacing" textLength="56" x="71" y="25.5352">creating</text></g><g id="editing"><rect fill="#F1F1F1" height="50" rx="12.5" ry="12.5" style="stroke:#181818;stroke-width:0.5;" width="68" x="212" y="7"/><line style="stroke:#181818;stroke-width:0.5;" x1="212" x2="280" y1="33.4883" y2="33.4883"/><text fill="#000000" font-family="sans-serif" font-size="14" lengthAdjust="spacing" textLength="48" x="222" y="25.5352">editing</text></g><g id="team_reviewing"><rect fill="#F1F1F1" height="50" rx="12.5" ry="12.5" style="stroke:#181818;stroke-width:0.5;" width="127" x="102.5" y="134"/><line style="stroke:#181818;stroke-width:0.5;" x1="102.5" x2="229.5" y1="160.4883" y2="160.4883"/><text fill="#000000" font-family="sans-serif" font-size="14" lengthAdjust="spacing" textLength="107" x="112.5" y="152.5352">team_reviewing</text></g><g id="dept_reviewing"><rect fill="#F1F1F1" height="50" rx="12.5" ry="12.5" style="stroke:#181818;stroke-width:0.5;" width="124" x="184" y="261"/><line style="stroke:#181818;stroke-width:0.5;" x1="184" x2="308" y1="287.4883" y2="287.4883"/><text fill="#000000" font-family="sans-serif" font-size="14" lengthAdjust="spacing" textLength="104" x="194" y="279.5352">dept_reviewing</text></g><g id="tracking"><rect fill="#F1F1F1" height="50" rx="12.5" ry="12.5" style="stroke:#181818;stroke-width:0.5;" width="76" x="395" y="261"/><line style="stroke:#181818;stroke-width:0.5;" x1="395" x2="471" y1="287.4883" y2="287.4883"/><text fill="#000000" font-family="sans-serif" font-size="14" lengthAdjust="spacing" textLength="56" x="405" y="279.5352">tracking</text></g><ellipse cx="433" cy="398" fill="none" rx="10" ry="10" style="stroke:#222222;stroke-width:1.0;"/><ellipse cx="433.5" cy="398.5" fill="#222222" rx="6" ry="6" style="stroke:none;stroke-width:1.0;"/><!--MD5=[810184d89fe73cbd262b5bf1fcfdd867]
link *start to creating--><g id="link_*start_creating"><path d="M26.05,32 C35.92,32 45.79,32 55.66,32 " fill="none" id="*start-to-creating" style="stroke:#181818;stroke-width:1.0;"/><polygon fill="#181818" points="60.82,32,51.82,28,55.82,32,51.82,36,60.82,32" style="stroke:#181818;stroke-width:1.0;"/></g><!--MD5=[cf018a5ece3233fb9d2b7655f12bfbb1]
link creating to editing--><g id="link_creating_editing"><path d="M137.24,32 C158.66,32 185.32,32 206.88,32 " fill="none" id="creating-to-editing" style="stroke:#181818;stroke-width:1.0;"/><polygon fill="#181818" points="211.96,32,202.96,28,206.96,32,202.96,36,211.96,32" style="stroke:#181818;stroke-width:1.0;"/><text fill="#000000" font-family="sans-serif" font-size="13" lengthAdjust="spacing" textLength="38" x="155.5" y="25.5684">create</text></g><!--MD5=[251ecb2adabfc11800a34fd27363c50b]
link editing to editing--><g id="link_editing_editing"><path d="M280.08,20.85 C298.35,18.96 315,22.68 315,32 C315,40.45 301.33,44.29 285.17,43.53 " fill="none" id="editing-to-editing" style="stroke:#181818;stroke-width:1.0;"/><polygon fill="#181818" points="280.08,43.15,288.758,47.8076,285.0662,43.5215,289.3523,39.8297,280.08,43.15" style="stroke:#181818;stroke-width:1.0;"/><text fill="#000000" font-family="sans-serif" font-size="13" lengthAdjust="spacing" textLength="28" x="321" y="37.0684">save</text></g><!--MD5=[1b06958cf9569c956dfd51a8c122bd37]
link editing to team_reviewing--><g id="link_editing_team_reviewing"><path d="M211.82,44.1 C192,52.5 168.7,66.21 157,87 C149.89,99.63 151.13,115.5 154.58,129.03 " fill="none" id="editing-to-team_reviewing" style="stroke:#181818;stroke-width:1.0;"/><polygon fill="#181818" points="155.95,133.89,157.3848,124.1462,154.6066,129.0738,149.679,126.2956,155.95,133.89" style="stroke:#181818;stroke-width:1.0;"/><text fill="#000000" font-family="sans-serif" font-size="13" lengthAdjust="spacing" textLength="44" x="158" y="100.5684">submit</text></g><!--MD5=[9bf8c37f5c5d9360c64cb18b3401bb1e]
link team_reviewing to editing--><g id="link_team_reviewing_editing"><path d="M185.56,133.82 C192.62,124.69 200.46,114.07 207,104 C215.73,90.55 224.42,75 231.37,61.89 " fill="none" id="team_reviewing-to-editing" style="stroke:#181818;stroke-width:1.0;"/><polygon fill="#181818" points="233.85,57.18,226.121,63.2844,231.523,61.6055,233.2019,67.0075,233.85,57.18" style="stroke:#181818;stroke-width:1.0;"/><text fill="#000000" font-family="sans-serif" font-size="13" lengthAdjust="spacing" textLength="35" x="218" y="100.5684">reject</text></g><!--MD5=[c933443054524957844f496b7290ccca]
link team_reviewing to dept_reviewing--><g id="link_team_reviewing_dept_reviewing"><path d="M153.87,184.08 C148.41,198.51 144.81,216.77 153,231 C159.33,242 168.86,250.96 179.44,258.2 " fill="none" id="team_reviewing-to-dept_reviewing" style="stroke:#181818;stroke-width:1.0;"/><polygon fill="#181818" points="183.7,260.99,178.3646,252.7115,179.5179,258.2495,173.9799,259.4028,183.7,260.99" style="stroke:#181818;stroke-width:1.0;"/><text fill="#000000" font-family="sans-serif" font-size="13" lengthAdjust="spacing" textLength="44" x="154" y="227.5684">submit</text></g><!--MD5=[be4c09101b7337369b8f11871f0774cd]
link dept_reviewing to team_reviewing--><g id="link_dept_reviewing_team_reviewing"><path d="M233.85,260.82 C226.55,246.85 216.8,229.1 207,214 C201.48,205.5 195.04,196.62 188.92,188.56 " fill="none" id="dept_reviewing-to-team_reviewing" style="stroke:#181818;stroke-width:1.0;"/><polygon fill="#181818" points="185.56,184.18,187.8752,193.7529,188.6079,188.1437,194.2171,188.8763,185.56,184.18" style="stroke:#181818;stroke-width:1.0;"/><text fill="#000000" font-family="sans-serif" font-size="13" lengthAdjust="spacing" textLength="35" x="218" y="227.5684">reject</text></g><!--MD5=[5ea7aa3ca8529ea06a880ca4e5f61552]
link dept_reviewing to tracking--><g id="link_dept_reviewing_tracking"><path d="M308.01,286 C334.81,286 365.52,286 389.79,286 " fill="none" id="dept_reviewing-to-tracking" style="stroke:#181818;stroke-width:1.0;"/><polygon fill="#181818" points="394.86,286,385.86,282,389.86,286,385.86,290,394.86,286" style="stroke:#181818;stroke-width:1.0;"/><text fill="#000000" font-family="sans-serif" font-size="13" lengthAdjust="spacing" textLength="50" x="326.5" y="279.5684">approve</text></g><!--MD5=[1acd7ec0bf9210d338ccd074907f1705]
link dept_reviewing to editing--><g id="link_dept_reviewing_editing"><path d="M254.76,260.87 C257.68,251.66 260.55,240.97 262,231 C271.19,167.66 271.19,150.34 262,87 C260.8,78.75 258.63,70 256.26,62 " fill="none" id="dept_reviewing-to-editing" style="stroke:#FF0000;stroke-width:1.0;stroke-dasharray:7.0,7.0;"/><polygon fill="#FF0000" points="254.76,57.13,253.5631,66.9059,256.2204,61.912,261.2142,64.5693,254.76,57.13" style="stroke:#FF0000;stroke-width:1.0;"/><text fill="#000000" font-family="sans-serif" font-size="13" lengthAdjust="spacing" textLength="35" x="270" y="164.0684">reject</text></g><!--MD5=[5ea14640d6d19a8d73baeaabeeadef4b]
link tracking to tracking--><g id="link_tracking_tracking"><path d="M471.31,274.66 C489.73,273.26 506,277.04 506,286 C506,294.12 492.64,297.99 476.42,297.6 " fill="none" id="tracking-to-tracking" style="stroke:#181818;stroke-width:1.0;"/><polygon fill="#181818" points="471.31,297.34,480.0927,301.797,476.3034,297.5968,480.5036,293.8075,471.31,297.34" style="stroke:#181818;stroke-width:1.0;"/><text fill="#000000" font-family="sans-serif" font-size="13" lengthAdjust="spacing" textLength="32" x="512" y="291.0684">track</text></g><!--MD5=[7e5f0c06f8be5c1954fe0f3dca45e0e8]
link tracking to *end--><g id="link_tracking_*end"><path d="M433,311.14 C433,333.03 433,364.57 433,382.71 " fill="none" id="tracking-to-*end" style="stroke:#181818;stroke-width:1.0;"/><polygon fill="#181818" points="433,387.88,437,378.88,433,382.88,429,378.88,433,387.88" style="stroke:#181818;stroke-width:1.0;"/><text fill="#000000" font-family="sans-serif" font-size="13" lengthAdjust="spacing" textLength="33" x="434" y="354.5684">close</text></g><!--MD5=[1e9e6bb50abd0a1047cd875187362a52]
@startuml

[*] -right-> creating

creating -right-> editing : create

editing - -> editing : save
editing - -> team_reviewing : submit
team_reviewing - -> dept_reviewing : submit

dept_reviewing -right-> tracking : approve

team_reviewing - -> editing : reject
dept_reviewing -right-> team_reviewing : reject
dept_reviewing -[#red,dashed]-> editing : reject

tracking -down-> tracking : track
tracking - -> [*] : close

@enduml

PlantUML version 1.2022.5(Sat Apr 30 18:55:52 CST 2022)
(GPL source distribution)
Java Runtime: OpenJDK Runtime Environment
JVM: OpenJDK 64-Bit Server VM
Default Encoding: UTF-8
Language: zh
Country: CN
--></g></svg>