<?xml version="1.0" encoding="UTF-8" standalone="no"?><svg xmlns="http://www.w3.org/2000/svg" xmlns:xlink="http://www.w3.org/1999/xlink" contentStyleType="text/css" height="287px" preserveAspectRatio="none" style="width:660px;height:287px;background:#FFFFFF;" version="1.1" viewBox="0 0 660 287" width="660px" zoomAndPan="magnify"><defs/><g><ellipse cx="16" cy="32" fill="#222222" rx="10" ry="10" style="stroke:none;stroke-width:1.0;"/><g id="creating"><rect fill="#F1F1F1" height="50" rx="12.5" ry="12.5" style="stroke:#181818;stroke-width:0.5;" width="76" x="61" y="7"/><line style="stroke:#181818;stroke-width:0.5;" x1="61" x2="137" y1="33.4883" y2="33.4883"/><text fill="#000000" font-family="sans-serif" font-size="14" lengthAdjust="spacing" textLength="56" x="71" y="25.5352">creating</text></g><g id="editing"><rect fill="#F1F1F1" height="50" rx="12.5" ry="12.5" style="stroke:#181818;stroke-width:0.5;" width="68" x="212" y="7"/><line style="stroke:#181818;stroke-width:0.5;" x1="212" x2="280" y1="33.4883" y2="33.4883"/><text fill="#000000" font-family="sans-serif" font-size="14" lengthAdjust="spacing" textLength="48" x="222" y="25.5352">editing</text></g><g id="team_reviewing"><rect fill="#F1F1F1" height="50" rx="12.5" ry="12.5" style="stroke:#181818;stroke-width:0.5;" width="127" x="79.5" y="134"/><line style="stroke:#181818;stroke-width:0.5;" x1="79.5" x2="206.5" y1="160.4883" y2="160.4883"/><text fill="#000000" font-family="sans-serif" font-size="14" lengthAdjust="spacing" textLength="107" x="89.5" y="152.5352">team_reviewing</text></g><g id="dept_reviewing"><rect fill="#F1F1F1" height="50" rx="12.5" ry="12.5" style="stroke:#181818;stroke-width:0.5;" width="124" x="287" y="134"/><line style="stroke:#181818;stroke-width:0.5;" x1="287" x2="411" y1="160.4883" y2="160.4883"/><text fill="#000000" font-family="sans-serif" font-size="14" lengthAdjust="spacing" textLength="104" x="297" y="152.5352">dept_reviewing</text></g><g id="tracking"><rect fill="#F1F1F1" height="50" rx="12.5" ry="12.5" style="stroke:#181818;stroke-width:0.5;" width="76" x="498" y="134"/><line style="stroke:#181818;stroke-width:0.5;" x1="498" x2="574" y1="160.4883" y2="160.4883"/><text fill="#000000" font-family="sans-serif" font-size="14" lengthAdjust="spacing" textLength="56" x="508" y="152.5352">tracking</text></g><ellipse cx="536" cy="271" fill="none" rx="10" ry="10" style="stroke:#222222;stroke-width:1.0;"/><ellipse cx="536.5" cy="271.5" fill="#222222" rx="6" ry="6" style="stroke:none;stroke-width:1.0;"/><!--MD5=[810184d89fe73cbd262b5bf1fcfdd867]
link *start to creating--><g id="link_*start_creating"><path d="M26.05,32 C35.92,32 45.79,32 55.66,32 " fill="none" id="*start-to-creating" style="stroke:#181818;stroke-width:1.0;"/><polygon fill="#181818" points="60.82,32,51.82,28,55.82,32,51.82,36,60.82,32" style="stroke:#181818;stroke-width:1.0;"/></g><!--MD5=[cf018a5ece3233fb9d2b7655f12bfbb1]
link creating to editing--><g id="link_creating_editing"><path d="M137.24,32 C158.66,32 185.32,32 206.88,32 " fill="none" id="creating-to-editing" style="stroke:#181818;stroke-width:1.0;"/><polygon fill="#181818" points="211.96,32,202.96,28,206.96,32,202.96,36,211.96,32" style="stroke:#181818;stroke-width:1.0;"/><text fill="#000000" font-family="sans-serif" font-size="13" lengthAdjust="spacing" textLength="38" x="155.5" y="25.5684">create</text></g><!--MD5=[251ecb2adabfc11800a34fd27363c50b]
link editing to editing--><g id="link_editing_editing"><path d="M280.08,20.85 C298.35,18.96 315,22.68 315,32 C315,40.45 301.33,44.29 285.17,43.53 " fill="none" id="editing-to-editing" style="stroke:#181818;stroke-width:1.0;"/><polygon fill="#181818" points="280.08,43.15,288.758,47.8076,285.0662,43.5215,289.3523,39.8297,280.08,43.15" style="stroke:#181818;stroke-width:1.0;"/><text fill="#000000" font-family="sans-serif" font-size="13" lengthAdjust="spacing" textLength="28" x="321" y="37.0684">save</text></g><!--MD5=[1b06958cf9569c956dfd51a8c122bd37]
link editing to team_reviewing--><g id="link_editing_team_reviewing"><path d="M211.85,42.85 C178.02,53.38 129.74,70.76 119,87 C110.55,99.77 114.94,115.81 122.16,129.41 " fill="none" id="editing-to-team_reviewing" style="stroke:#181818;stroke-width:1.0;"/><polygon fill="#181818" points="124.7,133.92,123.7633,124.1158,122.2439,129.5648,116.7949,128.0455,124.7,133.92" style="stroke:#181818;stroke-width:1.0;"/><text fill="#000000" font-family="sans-serif" font-size="13" lengthAdjust="spacing" textLength="44" x="120" y="100.5684">submit</text></g><!--MD5=[3e849a3bb01f7ed3214099f12cacbbb4]
reverse link editing to team_reviewing--><g id="link_editing_team_reviewing"><path d="M222.85,61.1 C204.78,83.02 179.95,113.16 162.8,133.97 " fill="none" id="editing-backto-team_reviewing" style="stroke:#181818;stroke-width:1.0;"/><polygon fill="#181818" points="226.14,57.1,217.3343,61.5114,222.9645,60.9621,223.5138,66.5923,226.14,57.1" style="stroke:#181818;stroke-width:1.0;"/><text fill="#000000" font-family="sans-serif" font-size="13" lengthAdjust="spacing" textLength="35" x="202" y="100.5684">reject</text></g><!--MD5=[c933443054524957844f496b7290ccca]
link team_reviewing to dept_reviewing--><g id="link_team_reviewing_dept_reviewing"><path d="M206.77,159 C230.6,159 257.72,159 281.84,159 " fill="none" id="team_reviewing-to-dept_reviewing" style="stroke:#181818;stroke-width:1.0;"/><polygon fill="#181818" points="286.94,159,277.94,155,281.94,159,277.94,163,286.94,159" style="stroke:#181818;stroke-width:1.0;"/><text fill="#000000" font-family="sans-serif" font-size="13" lengthAdjust="spacing" textLength="44" x="224.75" y="152.5684">submit</text></g><!--MD5=[be4c09101b7337369b8f11871f0774cd]
link dept_reviewing to team_reviewing--><g id="link_dept_reviewing_team_reviewing"><path d="M286.63,175.58 C279.47,176.98 272.23,178.18 265.25,179 C247.93,181.04 229.31,179.78 211.95,177.11 " fill="none" id="dept_reviewing-to-team_reviewing" style="stroke:#181818;stroke-width:1.0;"/><polygon fill="#181818" points="206.61,176.23,214.8401,181.6397,211.5435,177.0427,216.1405,173.7461,206.61,176.23" style="stroke:#181818;stroke-width:1.0;"/><text fill="#000000" font-family="sans-serif" font-size="13" lengthAdjust="spacing" textLength="35" x="229.25" y="175.5684">reject</text></g><!--MD5=[5ea7aa3ca8529ea06a880ca4e5f61552]
link dept_reviewing to tracking--><g id="link_dept_reviewing_tracking"><path d="M411.01,159 C437.81,159 468.52,159 492.79,159 " fill="none" id="dept_reviewing-to-tracking" style="stroke:#181818;stroke-width:1.0;"/><polygon fill="#181818" points="497.86,159,488.86,155,492.86,159,488.86,163,497.86,159" style="stroke:#181818;stroke-width:1.0;"/><text fill="#000000" font-family="sans-serif" font-size="13" lengthAdjust="spacing" textLength="50" x="429.5" y="152.5684">approve</text></g><!--MD5=[1acd7ec0bf9210d338ccd074907f1705]
link dept_reviewing to editing--><g id="link_dept_reviewing_editing"><path d="M347.77,133.73 C345.97,119.04 341.76,100.59 332,87 C320.25,70.64 301.86,58.12 285.1,49.28 " fill="none" id="dept_reviewing-to-editing" style="stroke:#FF0000;stroke-width:1.0;stroke-dasharray:7.0,7.0;"/><polygon fill="#FF0000" points="280.42,46.89,286.6126,54.5484,284.8719,49.1661,290.2543,47.4254,280.42,46.89" style="stroke:#FF0000;stroke-width:1.0;"/><text fill="#000000" font-family="sans-serif" font-size="13" lengthAdjust="spacing" textLength="35" x="342" y="100.5684">reject</text></g><!--MD5=[aa11bbdf17ff5b817bf745154c187879]
link editing to dept_reviewing--><g id="link_editing_dept_reviewing"><path d="M253.43,57.01 C258.73,71.59 266.89,90.03 278,104 C285.92,113.95 296.06,123.07 306.18,130.87 " fill="none" id="editing-to-dept_reviewing" style="stroke:#FF0000;stroke-width:1.0;stroke-dasharray:7.0,7.0;"/><polygon fill="#FF0000" points="310.21,133.91,305.4296,125.2991,306.2169,130.9009,300.615,131.6881,310.21,133.91" style="stroke:#FF0000;stroke-width:1.0;"/><text fill="#000000" font-family="sans-serif" font-size="13" lengthAdjust="spacing" textLength="44" x="279" y="100.5684">submit</text></g><!--MD5=[5ea14640d6d19a8d73baeaabeeadef4b]
link tracking to tracking--><g id="link_tracking_tracking"><path d="M574.31,147.66 C592.73,146.26 609,150.04 609,159 C609,167.12 595.64,170.99 579.42,170.6 " fill="none" id="tracking-to-tracking" style="stroke:#181818;stroke-width:1.0;"/><polygon fill="#181818" points="574.31,170.34,583.0927,174.797,579.3034,170.5968,583.5036,166.8075,574.31,170.34" style="stroke:#181818;stroke-width:1.0;"/><text fill="#000000" font-family="sans-serif" font-size="13" lengthAdjust="spacing" textLength="32" x="615" y="164.0684">track</text></g><!--MD5=[7e5f0c06f8be5c1954fe0f3dca45e0e8]
link tracking to *end--><g id="link_tracking_*end"><path d="M536,184.14 C536,206.03 536,237.57 536,255.71 " fill="none" id="tracking-to-*end" style="stroke:#181818;stroke-width:1.0;"/><polygon fill="#181818" points="536,260.88,540,251.88,536,255.88,532,251.88,536,260.88" style="stroke:#181818;stroke-width:1.0;"/><text fill="#000000" font-family="sans-serif" font-size="13" lengthAdjust="spacing" textLength="33" x="537" y="227.5684">close</text></g><!--MD5=[fbae4ec7347a0279509ce0d0e2f54e42]
@startuml

[*] -right-> creating

creating -right-> editing : create

editing - -> editing : save
editing -right-> team_reviewing : submit
team_reviewing -right-> dept_reviewing : submit

dept_reviewing -right-> tracking : approve

team_reviewing -up-> editing : reject
dept_reviewing -right-> team_reviewing : reject
dept_reviewing -[#red,dashed]-> editing : reject
editing -[#red,dashed]-> dept_reviewing : submit

tracking -down-> tracking : track
tracking - -> [*] : close

@enduml

PlantUML version 1.2022.5(Sat Apr 30 18:55:52 CST 2022)
(GPL source distribution)
Java Runtime: OpenJDK Runtime Environment
JVM: OpenJDK 64-Bit Server VM
Default Encoding: UTF-8
Language: zh
Country: CN
--></g></svg>