<?xml version="1.0" encoding="UTF-8" standalone="no"?><svg xmlns="http://www.w3.org/2000/svg" xmlns:xlink="http://www.w3.org/1999/xlink" contentStyleType="text/css" height="287px" preserveAspectRatio="none" style="width:538px;height:287px;background:#FFFFFF;" version="1.1" viewBox="0 0 538 287" width="538px" zoomAndPan="magnify"><defs/><g><ellipse cx="16" cy="32" fill="#222222" rx="10" ry="10" style="stroke:none;stroke-width:1.0;"/><g id="creating"><rect fill="#F1F1F1" height="50" rx="12.5" ry="12.5" style="stroke:#181818;stroke-width:0.5;" width="76" x="61" y="7"/><line style="stroke:#181818;stroke-width:0.5;" x1="61" x2="137" y1="33.4883" y2="33.4883"/><text fill="#000000" font-family="sans-serif" font-size="14" lengthAdjust="spacing" textLength="56" x="71" y="25.5352">creating</text></g><g id="editing"><rect fill="#F1F1F1" height="50" rx="12.5" ry="12.5" style="stroke:#181818;stroke-width:0.5;" width="68" x="212" y="7"/><line style="stroke:#181818;stroke-width:0.5;" x1="212" x2="280" y1="33.4883" y2="33.4883"/><text fill="#000000" font-family="sans-serif" font-size="14" lengthAdjust="spacing" textLength="48" x="222" y="25.5352">editing</text></g><g id="reviewing"><rect fill="#F1F1F1" height="50" rx="12.5" ry="12.5" style="stroke:#181818;stroke-width:0.5;" width="86" x="203" y="134"/><line style="stroke:#181818;stroke-width:0.5;" x1="203" x2="289" y1="160.4883" y2="160.4883"/><text fill="#000000" font-family="sans-serif" font-size="14" lengthAdjust="spacing" textLength="66" x="213" y="152.5352">reviewing</text></g><g id="tracking"><rect fill="#F1F1F1" height="50" rx="12.5" ry="12.5" style="stroke:#181818;stroke-width:0.5;" width="76" x="376" y="134"/><line style="stroke:#181818;stroke-width:0.5;" x1="376" x2="452" y1="160.4883" y2="160.4883"/><text fill="#000000" font-family="sans-serif" font-size="14" lengthAdjust="spacing" textLength="56" x="386" y="152.5352">tracking</text></g><ellipse cx="414" cy="271" fill="none" rx="10" ry="10" style="stroke:#222222;stroke-width:1.0;"/><ellipse cx="414.5" cy="271.5" fill="#222222" rx="6" ry="6" style="stroke:none;stroke-width:1.0;"/><!--MD5=[810184d89fe73cbd262b5bf1fcfdd867]
link *start to creating--><g id="link_*start_creating"><path d="M26.05,32 C35.92,32 45.79,32 55.66,32 " fill="none" id="*start-to-creating" style="stroke:#181818;stroke-width:1.0;"/><polygon fill="#181818" points="60.82,32,51.82,28,55.82,32,51.82,36,60.82,32" style="stroke:#181818;stroke-width:1.0;"/></g><!--MD5=[cf018a5ece3233fb9d2b7655f12bfbb1]
link creating to editing--><g id="link_creating_editing"><path d="M137.24,32 C158.66,32 185.32,32 206.88,32 " fill="none" id="creating-to-editing" style="stroke:#181818;stroke-width:1.0;"/><polygon fill="#181818" points="211.96,32,202.96,28,206.96,32,202.96,36,211.96,32" style="stroke:#181818;stroke-width:1.0;"/><text fill="#000000" font-family="sans-serif" font-size="13" lengthAdjust="spacing" textLength="38" x="155.5" y="25.5684">create</text></g><!--MD5=[251ecb2adabfc11800a34fd27363c50b]
link editing to editing--><g id="link_editing_editing"><path d="M280.08,20.85 C298.35,18.96 315,22.68 315,32 C315,40.45 301.33,44.29 285.17,43.53 " fill="none" id="editing-to-editing" style="stroke:#181818;stroke-width:1.0;"/><polygon fill="#181818" points="280.08,43.15,288.758,47.8076,285.0662,43.5215,289.3523,39.8297,280.08,43.15" style="stroke:#181818;stroke-width:1.0;"/><text fill="#000000" font-family="sans-serif" font-size="13" lengthAdjust="spacing" textLength="28" x="321" y="37.0684">save</text></g><!--MD5=[27e3b90cb4cd6727cf5963eca24c33c7]
link editing to reviewing--><g id="link_editing_reviewing"><path d="M219.1,57.18 C211.42,65.75 204.04,76.02 200,87 C194.39,102.24 202.21,117.56 212.9,130.05 " fill="none" id="editing-to-reviewing" style="stroke:#181818;stroke-width:1.0;"/><polygon fill="#181818" points="216.3,133.83,213.2525,124.4645,212.9552,130.1135,207.3061,129.8162,216.3,133.83" style="stroke:#181818;stroke-width:1.0;"/><text fill="#000000" font-family="sans-serif" font-size="13" lengthAdjust="spacing" textLength="44" x="201" y="100.5684">submit</text></g><!--MD5=[8906a97a21ce99583da15f688ad8c0a3]
link reviewing to editing--><g id="link_reviewing_editing"><path d="M248.17,133.83 C248.91,124.51 249.64,113.77 250,104 C250.5,90.4 249.83,75.34 248.9,62.61 " fill="none" id="reviewing-to-editing" style="stroke:#181818;stroke-width:1.0;"/><polygon fill="#181818" points="248.49,57.31,245.1961,66.5917,248.8757,62.2951,253.1723,65.9747,248.49,57.31" style="stroke:#181818;stroke-width:1.0;"/><text fill="#000000" font-family="sans-serif" font-size="13" lengthAdjust="spacing" textLength="35" x="251" y="100.5684">reject</text></g><!--MD5=[a8cffae062843e4e24d21cc6371e0102]
link reviewing to tracking--><g id="link_reviewing_tracking"><path d="M289.26,159 C314.22,159 345.52,159 370.51,159 " fill="none" id="reviewing-to-tracking" style="stroke:#181818;stroke-width:1.0;"/><polygon fill="#181818" points="375.75,159,366.75,155,370.75,159,366.75,163,375.75,159" style="stroke:#181818;stroke-width:1.0;"/><text fill="#000000" font-family="sans-serif" font-size="13" lengthAdjust="spacing" textLength="50" x="307.5" y="152.5684">approve</text></g><!--MD5=[5ea14640d6d19a8d73baeaabeeadef4b]
link tracking to tracking--><g id="link_tracking_tracking"><path d="M452.31,147.66 C470.73,146.26 487,150.04 487,159 C487,167.12 473.64,170.99 457.42,170.6 " fill="none" id="tracking-to-tracking" style="stroke:#181818;stroke-width:1.0;"/><polygon fill="#181818" points="452.31,170.34,461.0927,174.797,457.3034,170.5968,461.5036,166.8075,452.31,170.34" style="stroke:#181818;stroke-width:1.0;"/><text fill="#000000" font-family="sans-serif" font-size="13" lengthAdjust="spacing" textLength="32" x="493" y="164.0684">track</text></g><!--MD5=[7e5f0c06f8be5c1954fe0f3dca45e0e8]
link tracking to *end--><g id="link_tracking_*end"><path d="M414,184.14 C414,206.03 414,237.57 414,255.71 " fill="none" id="tracking-to-*end" style="stroke:#181818;stroke-width:1.0;"/><polygon fill="#181818" points="414,260.88,418,251.88,414,255.88,410,251.88,414,260.88" style="stroke:#181818;stroke-width:1.0;"/><text fill="#000000" font-family="sans-serif" font-size="13" lengthAdjust="spacing" textLength="33" x="415" y="227.5684">close</text></g><!--MD5=[03ae3a70bf5e7456afb3d9b09350370c]
@startuml

[*] -right-> creating

creating -right-> editing : create

editing - -> editing : save
editing - -> reviewing : submit
reviewing - -> editing : reject
reviewing -right-> tracking : approve
tracking -down-> tracking : track
tracking - -> [*] : close

@enduml

PlantUML version 1.2022.5(Sat Apr 30 18:55:52 CST 2022)
(GPL source distribution)
Java Runtime: OpenJDK Runtime Environment
JVM: OpenJDK 64-Bit Server VM
Default Encoding: UTF-8
Language: zh
Country: CN
--></g></svg>