<?xml version="1.0" encoding="UTF-8" standalone="no"?><svg xmlns="http://www.w3.org/2000/svg" xmlns:xlink="http://www.w3.org/1999/xlink" contentStyleType="text/css" height="312px" preserveAspectRatio="none" style="width:770px;height:312px;background:#FFFFFF;" version="1.1" viewBox="0 0 770 312" width="770px" zoomAndPan="magnify"><defs/><g><!--MD5=[a2b495d47876151f6cd049c5670ad9cc]
cluster reviewing--><g id="cluster_reviewing"><path d="M153.5,49.97 L571.5,49.97 A12.5,12.5 0 0 1 584,62.47 L584,76.4583 L141,76.4583 L141,62.47 A12.5,12.5 0 0 1 153.5,49.97 " fill="#F1F1F1" style="stroke:#F1F1F1;stroke-width:1.0;"/><rect height="136" rx="12.5" ry="12.5" style="stroke:#181818;stroke-width:0.5;fill:none;" width="443" x="141" y="49.97"/><line style="stroke:#181818;stroke-width:0.5;fill:none;" x1="141" x2="584" y1="76.4583" y2="76.4583"/><text fill="#000000" font-family="sans-serif" font-size="14" lengthAdjust="spacing" textLength="66" x="329.5" y="67.5052">reviewing</text></g><ellipse cx="194" cy="136.97" fill="#222222" rx="10" ry="10" style="stroke:none;stroke-width:1.0;"/><g id="reviewing.pending"><rect fill="#F1F1F1" height="50" rx="12.5" ry="12.5" style="stroke:#181818;stroke-width:0.5;" width="77" x="239.5" y="111.97"/><line style="stroke:#181818;stroke-width:0.5;" x1="239.5" x2="316.5" y1="138.4583" y2="138.4583"/><text fill="#000000" font-family="sans-serif" font-size="14" lengthAdjust="spacing" textLength="57" x="249.5" y="130.5052">pending</text></g><g id="reviewing.accepted"><rect fill="#F1F1F1" height="50" rx="12.5" ry="12.5" style="stroke:#181818;stroke-width:0.5;" width="81" x="351.5" y="111.97"/><line style="stroke:#181818;stroke-width:0.5;" x1="351.5" x2="432.5" y1="138.4583" y2="138.4583"/><text fill="#000000" font-family="sans-serif" font-size="14" lengthAdjust="spacing" textLength="61" x="361.5" y="130.5052">accepted</text></g><g id="reviewing.completed"><rect fill="#F1F1F1" height="50" rx="12.5" ry="12.5" style="stroke:#181818;stroke-width:0.5;" width="92" x="468" y="111.97"/><line style="stroke:#181818;stroke-width:0.5;" x1="468" x2="560" y1="138.4583" y2="138.4583"/><text fill="#000000" font-family="sans-serif" font-size="14" lengthAdjust="spacing" textLength="72" x="478" y="130.5052">completed</text></g><ellipse cx="45" cy="136.97" fill="#222222" rx="10" ry="10" style="stroke:none;stroke-width:1.0;"/><g id="creating"><rect fill="#F1F1F1" height="50" rx="12.5" ry="12.5" style="stroke:#181818;stroke-width:0.5;" width="76" x="7" y="256.97"/><line style="stroke:#181818;stroke-width:0.5;" x1="7" x2="83" y1="283.4583" y2="283.4583"/><text fill="#000000" font-family="sans-serif" font-size="14" lengthAdjust="spacing" textLength="56" x="17" y="275.5052">creating</text></g><g id="editing"><rect fill="#F1F1F1" height="50" rx="12.5" ry="12.5" style="stroke:#181818;stroke-width:0.5;" width="68" x="158" y="256.97"/><line style="stroke:#181818;stroke-width:0.5;" x1="158" x2="226" y1="283.4583" y2="283.4583"/><text fill="#000000" font-family="sans-serif" font-size="14" lengthAdjust="spacing" textLength="48" x="168" y="275.5052">editing</text></g><g id="tracking"><rect fill="#F1F1F1" height="50" rx="12.5" ry="12.5" style="stroke:#181818;stroke-width:0.5;" width="76" x="608" y="111.97"/><line style="stroke:#181818;stroke-width:0.5;" x1="608" x2="684" y1="138.4583" y2="138.4583"/><text fill="#000000" font-family="sans-serif" font-size="14" lengthAdjust="spacing" textLength="56" x="618" y="130.5052">tracking</text></g><ellipse cx="646" cy="281.97" fill="none" rx="10" ry="10" style="stroke:#222222;stroke-width:1.0;"/><ellipse cx="646.5" cy="282.47" fill="#222222" rx="6" ry="6" style="stroke:none;stroke-width:1.0;"/><!--MD5=[810184d89fe73cbd262b5bf1fcfdd867]
link *start to creating--><g id="link_*start_creating"><path d="M45,147.35 C45,168.23 45,219.26 45,251.87 " fill="none" id="*start-to-creating" style="stroke:#181818;stroke-width:1.0;"/><polygon fill="#181818" points="45,256.93,49,247.93,45,251.93,41,247.93,45,256.93" style="stroke:#181818;stroke-width:1.0;"/></g><!--MD5=[f6b7a2bd5ba95840ac61b67f6d8bf159]
link *start*reviewing to pending--><g id="link_*start*reviewing_pending"><path d="M204.17,136.97 C214.16,136.97 224.15,136.97 234.13,136.97 " fill="none" id="*start*reviewing-to-pending" style="stroke:#181818;stroke-width:1.0;"/><polygon fill="#181818" points="239.36,136.97,230.36,132.97,234.36,136.97,230.36,140.97,239.36,136.97" style="stroke:#181818;stroke-width:1.0;"/></g><!--MD5=[22273cd190a2eb12e65eee78aca17da8]
link pending to accepted--><g id="link_pending_accepted"><path d="M316.74,136.97 C326.59,136.97 336.44,136.97 346.28,136.97 " fill="none" id="pending-to-accepted" style="stroke:#181818;stroke-width:1.0;"/><polygon fill="#181818" points="351.43,136.97,342.43,132.97,346.43,136.97,342.43,140.97,351.43,136.97" style="stroke:#181818;stroke-width:1.0;"/></g><!--MD5=[04fd24569f2d81421878850968061165]
link accepted to completed--><g id="link_accepted_completed"><path d="M432.51,136.97 C442.54,136.97 452.57,136.97 462.6,136.97 " fill="none" id="accepted-to-completed" style="stroke:#181818;stroke-width:1.0;"/><polygon fill="#181818" points="467.84,136.97,458.84,132.97,462.84,136.97,458.84,140.97,467.84,136.97" style="stroke:#181818;stroke-width:1.0;"/></g><!--MD5=[cf018a5ece3233fb9d2b7655f12bfbb1]
link creating to editing--><g id="link_creating_editing"><path d="M83.24,281.97 C104.66,281.97 131.32,281.97 152.88,281.97 " fill="none" id="creating-to-editing" style="stroke:#181818;stroke-width:1.0;"/><polygon fill="#181818" points="157.96,281.97,148.96,277.97,152.96,281.97,148.96,285.97,157.96,281.97" style="stroke:#181818;stroke-width:1.0;"/><text fill="#000000" font-family="sans-serif" font-size="13" lengthAdjust="spacing" textLength="38" x="101.5" y="275.5384">create</text></g><!--MD5=[251ecb2adabfc11800a34fd27363c50b]
link editing to editing--><g id="link_editing_editing"><path d="M226.08,270.82 C244.35,268.93 261,272.65 261,281.97 C261,290.42 247.33,294.26 231.17,293.5 " fill="none" id="editing-to-editing" style="stroke:#181818;stroke-width:1.0;"/><polygon fill="#181818" points="226.08,293.12,234.758,297.7776,231.0662,293.4915,235.3523,289.7997,226.08,293.12" style="stroke:#181818;stroke-width:1.0;"/><text fill="#000000" font-family="sans-serif" font-size="13" lengthAdjust="spacing" textLength="28" x="267" y="287.0384">save</text></g><!--MD5=[27e3b90cb4cd6727cf5963eca24c33c7]
link editing to reviewing--><g id="link_editing_reviewing"><path d="M184.61,256.78 C179.84,241.15 173.52,220.37 168,201.97 C166.9663,198.5288 165.9042,194.9825 164.8359,191.4071 C164.3018,189.6194 163.766,187.8245 163.2315,186.0317 " fill="none" id="editing-to-reviewing" style="stroke:#181818;stroke-width:1.0;"/><polygon fill="#181818" points="163.2315,186.0317,161.9699,195.7994,164.6602,190.8233,169.6363,193.5136,163.2315,186.0317" style="stroke:#181818;stroke-width:1.0;"/><text fill="#000000" font-family="sans-serif" font-size="13" lengthAdjust="spacing" textLength="44" x="176" y="223.5384">submit</text></g><!--MD5=[8906a97a21ce99583da15f688ad8c0a3]
link reviewing to editing--><g id="link_reviewing_editing"><path d="M140.8352,149.6385 C140.7757,149.7319 140.716,149.8258 140.6561,149.9202 C140.5363,150.1089 140.4158,150.2995 140.2948,150.4919 C139.8104,151.2615 139.3161,152.0601 138.8144,152.8858 C137.8111,154.5373 136.7787,156.2974 135.7396,158.1512 C133.6616,161.8587 131.5569,165.9409 129.605,170.2788 C121.7975,187.63 116.435,209.07 125,226.97 C131.2,239.93 142.2,250.78 153.52,259.27 " fill="none" id="reviewing-to-editing" style="stroke:#181818;stroke-width:1.0;"/><polygon fill="#181818" points="157.69,262.29,152.7479,253.7709,153.6408,259.3568,148.0548,260.2496,157.69,262.29" style="stroke:#181818;stroke-width:1.0;"/><text fill="#000000" font-family="sans-serif" font-size="13" lengthAdjust="spacing" textLength="35" x="126" y="223.5384">reject</text></g><!--MD5=[ca8b3a8ded01f09afe4d6ff20a010a23]
link pending to editing--><g id="link_pending_editing"><path d="M265.52,162.13 C255.97,180.24 242.23,205.49 229,226.97 C223.82,235.38 217.89,244.3 212.32,252.42 " fill="none" id="pending-to-editing" style="stroke:#FF0000;stroke-width:1.0;stroke-dasharray:7.0,7.0;"/><polygon fill="#FF0000" points="209.27,256.84,217.677,251.7095,212.1123,252.7265,211.0954,247.1618,209.27,256.84" style="stroke:#FF0000;stroke-width:1.0;"/><text fill="#000000" font-family="sans-serif" font-size="13" lengthAdjust="spacing" textLength="58" x="239" y="223.5384">pull back</text></g><!--MD5=[a8cffae062843e4e24d21cc6371e0102]
link reviewing to tracking--><g id="link_reviewing_tracking"><path d="M155.8728,49.7367 C156.0376,49.4438 156.2048,49.1524 156.3744,48.8624 C156.7135,48.2826 157.0621,47.7088 157.4204,47.1416 C160.287,42.6036 163.775,38.4813 168,34.97 C202.87,6 535.89,13.85 576,34.97 C604.68,50.07 623.88,82.83 634.8,107.16 " fill="none" id="reviewing-to-tracking" style="stroke:#181818;stroke-width:1.0;"/><polygon fill="#181818" points="636.88,111.91,636.9485,102.0614,634.8812,107.3269,629.6156,105.2595,636.88,111.91" style="stroke:#181818;stroke-width:1.0;"/><text fill="#000000" font-family="sans-serif" font-size="13" lengthAdjust="spacing" textLength="50" x="353" y="22.5384">approve</text></g><!--MD5=[5ea14640d6d19a8d73baeaabeeadef4b]
link tracking to tracking--><g id="link_tracking_tracking"><path d="M684.31,122.34 C702.73,120.53 719,125.41 719,136.97 C719,147.45 705.64,152.44 689.42,151.94 " fill="none" id="tracking-to-tracking" style="stroke:#181818;stroke-width:1.0;"/><polygon fill="#181818" points="684.31,151.6,693.0275,156.1832,689.2992,151.9288,693.5536,148.2005,684.31,151.6" style="stroke:#181818;stroke-width:1.0;"/><text fill="#000000" font-family="sans-serif" font-size="13" lengthAdjust="spacing" textLength="32" x="725" y="142.0384">track</text></g><!--MD5=[7e5f0c06f8be5c1954fe0f3dca45e0e8]
link tracking to *end--><g id="link_tracking_*end"><path d="M646,162.23 C646,192.31 646,242.57 646,266.91 " fill="none" id="tracking-to-*end" style="stroke:#181818;stroke-width:1.0;"/><polygon fill="#181818" points="646,271.97,650,262.97,646,266.97,642,262.97,646,271.97" style="stroke:#181818;stroke-width:1.0;"/><text fill="#000000" font-family="sans-serif" font-size="13" lengthAdjust="spacing" textLength="33" x="647" y="223.5384">close</text></g><!--MD5=[43a0d1b0a80e3c66840ab356abd6ff14]
@startuml

[*] -down-> creating

state reviewing {
    [*] -right-> pending
    pending -right-> accepted
    accepted -right-> completed
}

creating -right-> editing : create

editing - -> editing : save
editing - -> reviewing : submit
reviewing - -> editing : reject
pending -[#red,dashed]-> editing : pull back

reviewing -right-> tracking : approve
tracking - -> tracking : track
tracking -down-> [*] : close

@enduml

PlantUML version 1.2022.5(Sat Apr 30 18:55:52 CST 2022)
(GPL source distribution)
Java Runtime: OpenJDK Runtime Environment
JVM: OpenJDK 64-Bit Server VM
Default Encoding: UTF-8
Language: zh
Country: CN
--></g></svg>