<?xml version="1.0" encoding="UTF-8" standalone="no"?><svg xmlns="http://www.w3.org/2000/svg" xmlns:xlink="http://www.w3.org/1999/xlink" contentStyleType="text/css" height="621px" preserveAspectRatio="none" style="width:485px;height:621px;background:#FFFFFF;" version="1.1" viewBox="0 0 485 621" width="485px" zoomAndPan="magnify"><defs/><g><ellipse cx="45" cy="16" fill="#222222" rx="10" ry="10" style="stroke:none;stroke-width:1.0;"/><g id="creating"><rect fill="#F1F1F1" height="50" rx="12.5" ry="12.5" style="stroke:#181818;stroke-width:0.5;" width="76" x="7" y="87"/><line style="stroke:#181818;stroke-width:0.5;" x1="7" x2="83" y1="113.4883" y2="113.4883"/><text fill="#000000" font-family="sans-serif" font-size="14" lengthAdjust="spacing" textLength="56" x="17" y="105.5352">creating</text></g><g id="elem_urgentChoice"><polygon fill="#F1F1F1" points="102,354,114,366,102,378,90,366,102,354" style="stroke:#181818;stroke-width:0.5;"/></g><g id="editing"><rect fill="#F1F1F1" height="50" rx="12.5" ry="12.5" style="stroke:#181818;stroke-width:0.5;" width="68" x="158" y="87"/><line style="stroke:#181818;stroke-width:0.5;" x1="158" x2="226" y1="113.4883" y2="113.4883"/><text fill="#000000" font-family="sans-serif" font-size="14" lengthAdjust="spacing" textLength="48" x="168" y="105.5352">editing</text></g><g id="team_reviewing"><rect fill="#F1F1F1" height="50" rx="12.5" ry="12.5" style="stroke:#181818;stroke-width:0.5;" width="127" x="128.5" y="214"/><line style="stroke:#181818;stroke-width:0.5;" x1="128.5" x2="255.5" y1="240.4883" y2="240.4883"/><text fill="#000000" font-family="sans-serif" font-size="14" lengthAdjust="spacing" textLength="107" x="138.5" y="232.5352">team_reviewing</text></g><g id="company_reviewing"><rect fill="#F1F1F1" height="50" rx="12.5" ry="12.5" style="stroke:#181818;stroke-width:0.5;" width="155" x="204.5" y="341"/><line style="stroke:#181818;stroke-width:0.5;" x1="204.5" x2="359.5" y1="367.4883" y2="367.4883"/><text fill="#000000" font-family="sans-serif" font-size="14" lengthAdjust="spacing" textLength="135" x="214.5" y="359.5352">company_reviewing</text></g><g id="dept_reviewing"><rect fill="#F1F1F1" height="50" rx="12.5" ry="12.5" style="stroke:#181818;stroke-width:0.5;" width="124" x="136" y="468"/><line style="stroke:#181818;stroke-width:0.5;" x1="136" x2="260" y1="494.4883" y2="494.4883"/><text fill="#000000" font-family="sans-serif" font-size="14" lengthAdjust="spacing" textLength="104" x="146" y="486.5352">dept_reviewing</text></g><g id="tracking"><rect fill="#F1F1F1" height="50" rx="12.5" ry="12.5" style="stroke:#181818;stroke-width:0.5;" width="76" x="323" y="468"/><line style="stroke:#181818;stroke-width:0.5;" x1="323" x2="399" y1="494.4883" y2="494.4883"/><text fill="#000000" font-family="sans-serif" font-size="14" lengthAdjust="spacing" textLength="56" x="333" y="486.5352">tracking</text></g><ellipse cx="361" cy="605" fill="none" rx="10" ry="10" style="stroke:#222222;stroke-width:1.0;"/><ellipse cx="361.5" cy="605.5" fill="#222222" rx="6" ry="6" style="stroke:none;stroke-width:1.0;"/><!--MD5=[810184d89fe73cbd262b5bf1fcfdd867]
link *start to creating--><g id="link_*start_creating"><path d="M45,26.01 C45,38.7 45,62.41 45,81.57 " fill="none" id="*start-to-creating" style="stroke:#181818;stroke-width:1.0;"/><polygon fill="#181818" points="45,86.84,49,77.84,45,81.84,41,77.84,45,86.84" style="stroke:#181818;stroke-width:1.0;"/></g><!--MD5=[cf018a5ece3233fb9d2b7655f12bfbb1]
link creating to editing--><g id="link_creating_editing"><path d="M83.24,112 C104.66,112 131.32,112 152.88,112 " fill="none" id="creating-to-editing" style="stroke:#181818;stroke-width:1.0;"/><polygon fill="#181818" points="157.96,112,148.96,108,152.96,112,148.96,116,157.96,112" style="stroke:#181818;stroke-width:1.0;"/><text fill="#000000" font-family="sans-serif" font-size="13" lengthAdjust="spacing" textLength="38" x="101.5" y="105.5684">create</text></g><!--MD5=[494fcf936a0abfebc9e8da09f10c44cf]
reverse link editing to editing--><g id="link_editing_editing"><path d="M231.17,101.96 C247.33,101.29 261,104.64 261,112 C261,120.12 244.35,123.36 226.08,121.71 " fill="none" id="editing-backto-editing" style="stroke:#181818;stroke-width:1.0;"/><polygon fill="#181818" points="226.08,102.29,235.3236,105.6895,231.0692,101.9612,234.7975,97.7068,226.08,102.29" style="stroke:#181818;stroke-width:1.0;"/><text fill="#000000" font-family="sans-serif" font-size="13" lengthAdjust="spacing" textLength="28" x="267" y="117.0684">save</text></g><!--MD5=[1b06958cf9569c956dfd51a8c122bd37]
link editing to team_reviewing--><g id="link_editing_team_reviewing"><path d="M165.1,137.18 C157.42,145.75 150.04,156.02 146,167 C140.39,182.24 148.21,197.56 158.9,210.05 " fill="none" id="editing-to-team_reviewing" style="stroke:#181818;stroke-width:1.0;"/><polygon fill="#181818" points="162.3,213.83,159.2525,204.4645,158.9552,210.1135,153.3061,209.8162,162.3,213.83" style="stroke:#181818;stroke-width:1.0;"/><text fill="#000000" font-family="sans-serif" font-size="13" lengthAdjust="spacing" textLength="44" x="147" y="180.5684">submit</text></g><!--MD5=[3e849a3bb01f7ed3214099f12cacbbb4]
reverse link editing to team_reviewing--><g id="link_editing_team_reviewing"><path d="M194.9,142.61 C195.83,155.34 196.5,170.4 196,184 C195.64,193.77 194.91,204.51 194.17,213.83 " fill="none" id="editing-backto-team_reviewing" style="stroke:#181818;stroke-width:1.0;"/><polygon fill="#181818" points="194.49,137.31,191.1961,146.5917,194.8757,142.2951,199.1723,145.9747,194.49,137.31" style="stroke:#181818;stroke-width:1.0;"/><text fill="#000000" font-family="sans-serif" font-size="13" lengthAdjust="spacing" textLength="35" x="198" y="180.5684">reject</text></g><!--MD5=[194d2b265a0ac52bfee8b15a717d0e6d]
link team_reviewing to urgentChoice--><g id="link_team_reviewing_urgentChoice"><path d="M174.65,264.1 C154.99,291.41 123.83,334.68 109.57,354.48 " fill="none" id="team_reviewing-to-urgentChoice" style="stroke:#181818;stroke-width:1.0;"/><polygon fill="#181818" points="106.64,358.55,115.1509,353.5937,109.5664,354.4959,108.6642,348.9114,106.64,358.55" style="stroke:#181818;stroke-width:1.0;"/><text fill="#000000" font-family="sans-serif" font-size="13" lengthAdjust="spacing" textLength="44" x="154" y="307.5684">submit</text></g><!--MD5=[4f27d25b235e40d0a2766b47886791cb]
link urgentChoice to company_reviewing--><g id="link_urgentChoice_company_reviewing"><path d="M114.09,366 C131.75,366 166.1,366 199.15,366 " fill="none" id="urgentChoice-to-company_reviewing" style="stroke:#181818;stroke-width:1.0;"/><polygon fill="#181818" points="204.44,366,195.44,362,199.44,366,195.44,370,204.44,366" style="stroke:#181818;stroke-width:1.0;"/><text fill="#000000" font-family="sans-serif" font-size="13" lengthAdjust="spacing" textLength="54" x="132.25" y="359.5684">if urgent</text></g><!--MD5=[5ee5d3e3a55e1ec86eb4bf074f7be240]
link urgentChoice to dept_reviewing--><g id="link_urgentChoice_dept_reviewing"><path d="M105.52,374.91 C111.78,388.53 125.73,416.96 142,438 C149.03,447.09 157.57,456.1 165.85,464.08 " fill="none" id="urgentChoice-to-dept_reviewing" style="stroke:#181818;stroke-width:1.0;"/><polygon fill="#181818" points="169.88,467.92,166.1044,458.8236,166.2529,464.4785,160.598,464.627,169.88,467.92" style="stroke:#181818;stroke-width:1.0;"/><text fill="#000000" font-family="sans-serif" font-size="13" lengthAdjust="spacing" textLength="34" x="143" y="434.5684">if not</text></g><!--MD5=[b3ede5cd2ba3bbf685eaf66d1c5b177d]
link dept_reviewing to company_reviewing--><g id="link_dept_reviewing_company_reviewing"><path d="M215.22,467.94 C221.8,458.64 229.33,447.88 236,438 C245.38,424.11 255.54,408.5 263.91,395.46 " fill="none" id="dept_reviewing-to-company_reviewing" style="stroke:#181818;stroke-width:1.0;"/><polygon fill="#181818" points="266.68,391.14,258.4699,396.5801,263.9928,395.3565,265.2164,400.8795,266.68,391.14" style="stroke:#181818;stroke-width:1.0;"/><text fill="#000000" font-family="sans-serif" font-size="13" lengthAdjust="spacing" textLength="44" x="248" y="434.5684">submit</text></g><!--MD5=[f30084b4db56d3c274a58ce5e0c40ed8]
link company_reviewing to dept_reviewing--><g id="link_company_reviewing_dept_reviewing"><path d="M221.01,391.25 C209.02,398.92 198,408.71 191,421 C183.85,433.56 184.67,449.42 187.68,462.96 " fill="none" id="company_reviewing-to-dept_reviewing" style="stroke:#FF0000;stroke-width:1.0;stroke-dasharray:7.0,7.0;"/><polygon fill="#FF0000" points="188.88,467.83,190.6046,458.1333,187.6808,462.9759,182.8381,460.0521,188.88,467.83" style="stroke:#FF0000;stroke-width:1.0;"/><text fill="#000000" font-family="sans-serif" font-size="13" lengthAdjust="spacing" textLength="35" x="192" y="434.5684">reject</text></g><!--MD5=[c2da19c4f5f7b527559666622d256d6e]
link company_reviewing to tracking--><g id="link_company_reviewing_tracking"><path d="M301.04,391.24 C307.92,400.37 315.58,410.98 322,421 C330.65,434.5 339.33,450.05 346.3,463.16 " fill="none" id="company_reviewing-to-tracking" style="stroke:#181818;stroke-width:1.0;"/><polygon fill="#181818" points="348.78,467.87,348.1319,458.0425,346.453,463.4445,341.051,461.7656,348.78,467.87" style="stroke:#181818;stroke-width:1.0;"/><text fill="#000000" font-family="sans-serif" font-size="13" lengthAdjust="spacing" textLength="50" x="332" y="434.5684">approve</text></g><!--MD5=[53871604d10b13bebcea97afc0e03385]
link company_reviewing to team_reviewing--><g id="link_company_reviewing_team_reviewing"><path d="M264.7,340.97 C249.78,320.24 228.2,290.27 212.43,268.37 " fill="none" id="company_reviewing-to-team_reviewing" style="stroke:#FF0000;stroke-width:1.0;stroke-dasharray:7.0,7.0;"/><polygon fill="#FF0000" points="209.35,264.1,211.3519,273.7433,212.267,268.1609,217.8493,269.0761,209.35,264.1" style="stroke:#FF0000;stroke-width:1.0;"/><text fill="#000000" font-family="sans-serif" font-size="13" lengthAdjust="spacing" textLength="35" x="244" y="307.5684">reject</text></g><!--MD5=[5ea14640d6d19a8d73baeaabeeadef4b]
link tracking to tracking--><g id="link_tracking_tracking"><path d="M399.31,481.66 C417.73,480.26 434,484.04 434,493 C434,501.12 420.64,504.99 404.42,504.6 " fill="none" id="tracking-to-tracking" style="stroke:#181818;stroke-width:1.0;"/><polygon fill="#181818" points="399.31,504.34,408.0927,508.797,404.3034,504.5968,408.5036,500.8075,399.31,504.34" style="stroke:#181818;stroke-width:1.0;"/><text fill="#000000" font-family="sans-serif" font-size="13" lengthAdjust="spacing" textLength="32" x="440" y="498.0684">track</text></g><!--MD5=[7e5f0c06f8be5c1954fe0f3dca45e0e8]
link tracking to *end--><g id="link_tracking_*end"><path d="M361,518.14 C361,540.03 361,571.57 361,589.71 " fill="none" id="tracking-to-*end" style="stroke:#181818;stroke-width:1.0;"/><polygon fill="#181818" points="361,594.88,365,585.88,361,589.88,357,585.88,361,594.88" style="stroke:#181818;stroke-width:1.0;"/><text fill="#000000" font-family="sans-serif" font-size="13" lengthAdjust="spacing" textLength="33" x="362" y="561.5684">close</text></g><!--MD5=[7b53cb60df33e4146e7cfc5c77b22ae6]
@startuml


[*] - -> creating

state urgentChoice <<choice>>

creating -right-> editing : create

editing -left-> editing : save

editing -down->  team_reviewing : submit
team_reviewing -up-> editing : reject

team_reviewing -right-> urgentChoice : submit

urgentChoice -right-> company_reviewing : if urgent
urgentChoice -down-> dept_reviewing : if not

dept_reviewing - -> company_reviewing : submit

company_reviewing - -> tracking : approve


company_reviewing -[#red,dashed]-> dept_reviewing : reject
company_reviewing -[#red,dashed]-> team_reviewing : reject

tracking -down-> tracking : track
tracking - -> [*] : close

@enduml

PlantUML version 1.2022.5(Sat Apr 30 18:55:52 CST 2022)
(GPL source distribution)
Java Runtime: OpenJDK Runtime Environment
JVM: OpenJDK 64-Bit Server VM
Default Encoding: UTF-8
Language: zh
Country: CN
--></g></svg>